<svg width="513" height="500" viewBox="0 0 513 500" fill="none" xmlns="http://www.w3.org/2000/svg">
<path fill-rule="evenodd" clip-rule="evenodd" d="M220.638 1.78543C136.445 14.395 66.1176 64.9105 27.865 140.253C11.3996 172.683 3.12344 204.709 0.832307 244.868L-4.53646e-05 259.455L67.4489 259.455C104.546 259.455 134.913 259.054 134.93 258.562C134.947 258.07 135.479 252.34 136.111 245.828C140.317 202.578 166.231 165.905 205.632 147.44C240.811 130.956 284.135 132.951 317.607 152.6C340.436 166 359.576 188.853 368.965 213.916C373.253 225.368 376.635 240.106 376.635 247.348C376.635 249.913 376.969 253.687 377.379 255.734L378.123 259.455L512.745 259.455L511.934 244.868C508.151 176.798 481.545 117.118 434.812 71.8709C394.973 33.3004 344.559 8.78149 290.524 1.69851C272.969 -0.603336 236.28 -0.556903 220.638 1.78543ZM1.52776 272.554L136.09 272.554L136.09 266.6L1.52776 266.6L1.52776 272.554ZM376.635 272.554L511.197 272.554L511.197 266.6L376.635 266.6L376.635 272.554ZM3.31398 285.058L138.639 285.674L137.876 280.295L2.55068 279.679L3.31398 285.058ZM374.253 281.937C374.253 283.974 375.669 284.247 390.031 284.978C409.717 285.98 510.006 285.401 510.006 284.286C510.006 283.835 510.331 282.619 510.729 281.583C511.383 279.879 504.916 279.699 442.852 279.699C376.514 279.699 374.253 279.773 374.253 281.937ZM3.90938 297.561L73.1041 297.561C135.711 297.561 142.23 297.382 141.576 295.678C141.178 294.642 140.853 293.302 140.853 292.701C140.853 292.049 113.169 291.607 72.3813 291.607L3.90938 291.607L3.90938 297.561ZM371.054 293.691C370.647 294.837 370.096 296.176 369.831 296.668C369.566 297.16 400.73 297.561 439.082 297.561L508.815 297.561L508.815 291.607L440.306 291.607C376.136 291.607 371.75 291.74 371.054 293.691ZM6.88642 310.065L147.928 310.679L145.939 305.302L6.12312 304.687L6.88642 310.065ZM366.155 306.135C361.634 310.657 362.189 310.69 435.282 310.372L505.838 310.065L506.599 304.706L437.092 304.706C384.618 304.706 367.234 305.056 366.155 306.135ZM9.42998 319.591C9.83129 320.901 10.3529 322.189 10.591 322.453C11.4746 323.437 139.38 323.913 147.161 322.963C154.569 322.058 155.125 321.798 153.71 319.911C152.28 318.001 146.86 317.824 80.4336 317.529C9.17753 317.212 8.70478 317.225 9.42998 319.591ZM359.011 319.234C354.378 323.867 354.659 323.883 429.788 323.516L501.994 323.164L503.976 317.805L432.208 317.805C377.975 317.805 360.091 318.154 359.011 319.234ZM12.7131 331.597C13.1108 332.633 13.4359 333.973 13.4359 334.574C13.4359 335.227 43.9255 335.667 89.0527 335.667C130.642 335.667 164.669 335.215 164.669 334.661C164.669 334.108 163.689 332.768 162.491 331.684C160.515 329.894 153.49 329.713 86.1519 329.713C19.0149 329.713 12.0593 329.892 12.7131 331.597ZM346.818 335.072L421.565 335.381C462.676 335.551 496.982 335.433 497.8 335.121C498.619 334.808 499.289 333.463 499.289 332.132C499.289 329.727 498.878 329.713 424.931 329.713L350.571 329.713L346.818 335.072ZM17.4763 344.696C17.8741 345.732 18.1992 347.072 18.1992 347.673C18.1992 348.326 50.6406 348.766 98.7864 348.766L179.375 348.766L173.78 342.812L95.2675 342.812C24.1628 342.812 16.8214 342.99 17.4763 344.696ZM336.015 345.062C333.24 347.309 333.248 347.311 345.707 348.104C352.566 348.541 388.721 348.734 426.053 348.534L493.93 348.171L494.691 342.812L416.741 342.812C342.099 342.812 338.675 342.908 336.015 345.062ZM30.5301 355.664C22.7469 355.98 22.0729 356.21 22.6302 358.343C23.2292 360.632 24.8451 360.673 111.52 360.622L199.799 360.57L195.035 358C190.302 355.447 189.791 355.43 114.655 355.373C73.066 355.342 35.21 355.472 30.5301 355.664ZM312.926 360.567L400.621 360.621C493.468 360.678 489.762 360.877 489.762 355.814C489.762 355.16 456.388 354.742 406.703 354.774L323.643 354.828L312.926 360.567ZM30.4896 373.774L133.502 373.774C190.16 373.774 236.278 373.537 235.989 373.247C235.699 372.957 230.41 371.617 224.235 370.27C213.442 367.914 209.442 367.82 120.393 367.82L27.7769 367.819L30.4896 373.774ZM286.728 370.657L277.202 373.178L379.016 373.487C473.679 373.774 480.936 373.652 482.319 371.771C483.139 370.657 483.808 369.313 483.808 368.783C483.808 368.253 441.609 367.891 390.031 367.978C298.577 368.132 296.019 368.197 286.728 370.657ZM36.0614 383.3C37.3284 385.669 38.555 385.682 256.277 385.682C454.824 385.682 475.285 385.507 475.94 383.798C476.338 382.762 476.663 381.69 476.663 381.416C476.663 381.142 377.241 380.919 255.725 380.919C35.1564 380.918 34.7884 380.922 36.0614 383.3ZM46.4739 398.185L465.667 398.788L469.573 392.827L42.9157 392.827L46.4739 398.185ZM52.7328 406.039C52.7328 406.428 53.6771 407.602 54.8322 408.647C56.7327 410.367 75.6953 410.57 256.26 410.8L455.588 411.052L459.756 405.33L256.244 405.33C144.312 405.33 52.7328 405.649 52.7328 406.039ZM63.4501 418.807C63.4501 419.378 64.4302 420.733 65.6281 421.817C67.6347 423.633 82.6032 423.788 256.712 423.788C442.259 423.788 445.64 423.747 446.851 421.485C447.529 420.218 448.084 418.909 448.084 418.577C448.084 418.243 361.541 417.926 255.767 417.87C146.954 417.812 63.4501 418.218 63.4501 418.807ZM76.5491 432.056C76.5491 432.674 77.7399 434.013 79.1963 435.033C81.5612 436.69 100.315 436.887 256.157 436.887L430.473 436.887L437.548 430.933L257.049 430.933C144.744 430.933 76.5491 431.357 76.5491 432.056ZM94.8269 448.795L416.527 448.709L423.672 442.853L89.2325 442.841L94.8269 448.795ZM108.11 457.139C111.049 461.894 109.273 461.838 257.142 461.831L398.665 461.825L405.81 455.952L256.59 455.946C156.709 455.942 107.615 456.336 108.11 457.139ZM127.754 468.639C127.754 468.832 129.867 470.068 132.448 471.386C137.059 473.738 139.304 473.781 256.902 473.814C373.878 473.846 376.763 473.791 381.112 471.496L385.566 469.144L269.461 468.904C205.604 468.773 147.597 468.58 140.555 468.476C133.514 468.372 127.754 468.446 127.754 468.639ZM153.952 481.495C153.952 481.796 157.491 483.136 161.817 484.472C169.43 486.823 172.479 486.901 256.362 486.901C340.246 486.901 343.294 486.823 350.907 484.472C355.233 483.136 358.772 481.796 358.772 481.495C358.772 481.194 312.688 480.947 256.362 480.947C200.037 480.947 153.952 481.194 153.952 481.495ZM198.608 495.855C211.973 498.79 228.831 500 256.362 500C283.894 500 300.751 498.79 314.117 495.855C320.339 494.488 312.884 494.285 256.362 494.285C199.84 494.285 192.386 494.488 198.608 495.855Z" fill="#041C14"/>
</svg>
